<?xml version="1.0" encoding="UTF-8"?>
<svg id="Layer_1" data-name="Layer 1" xmlns="http://www.w3.org/2000/svg" viewBox="0 0 1400 1400">
  <defs>
    <style>
      .cls-1 {
        fill: #4db74a;
        stroke-width: 0px;
      }
    </style>
  </defs>
  <g id="logo-logo">
    <path class="cls-1" d="M837.81,799.49l23.94-72.32c-16.69-5.56-33.21-13.15-49.06-22.76,64.06-12.64,127.78-26.97,191.17-42.99,71.48-18.88,124.41-78.05,139.58-145.65l21.58-3.88c38.28-6.91,63.73-43.66,56.65-81.92l-4.38-24.11c-6.91-38.26-43.66-63.72-81.93-56.64l-21.58,3.88c-38.1-57.82-108.56-94.57-182.06-86.99-52.26,5.9-104.52,12.98-156.44,21.24h0l53.78-77.88c15.17,2.19,31.19-4.04,40.46-17.53,13.15-19.05,8.43-45.01-10.62-58.16-19.05-13.15-45.01-8.43-58.16,10.62-9.27,13.49-9.61,30.68-2.19,44.16l-74.17,107.39h0c-23.94,4.04-47.88,8.43-71.82,13.15l-107.38-74.18c2.19-15.17-4.04-31.19-17.53-40.46-19.05-13.15-45.01-8.43-58.16,10.62-13.15,19.05-8.43,45.01,10.62,58.16,13.49,9.27,30.68,9.61,44.16,2.19l77.88,53.78h0c-51.58,10.62-102.83,22.42-153.91,35.4-71.48,18.88-124.41,78.05-139.58,145.65l-21.58,3.88c-38.26,6.91-63.72,43.66-56.64,81.93l4.38,24.11c7.08,38.26,43.66,63.72,81.93,56.64l21.58-3.88c38.1,57.82,108.56,94.57,182.06,86.99,51.08-5.73,101.82-12.64,152.56-20.56-4.38,5.56-9.78,11.97-16.69,18.88l16.69,16.35-4.89,18.04-22.08-24.44c-13.66,12.31-29.16,23.77-46.02,33.88l44.16,73.67c.51-.34,1.01-.68,1.52-1.01l-31.53,115.47c-5.9,21.91,10.45,43.5,33.21,43.5h84.8v30.01c-35.57,2.36-63.89,32.03-63.89,68.27v70.47c0,10.28,8.26,18.54,18.54,18.54s18.54-8.26,18.54-18.54v-70.47c0-17.19,13.99-31.36,31.36-31.36h28.15c17.19,0,31.36,13.99,31.36,31.36v70.47c0,10.28,8.26,18.54,18.54,18.54s18.54-8.26,18.54-18.54v-70.47c0-36.25-28.32-65.92-63.89-68.27v-30.01h84.79c22.76,0,39.28-21.58,33.21-43.5l-49.57-180.71ZM508.92,644.07c-2.7.34-5.39.34-7.93.34-24.95,0-49.4-11.8-65.75-29.5-9.44-10.28-16.01-22.42-18.71-35.57-1.86-9.61-3.71-19.56-5.39-29.16-2.19-13.32-.17-26.97,4.89-39.78,9.94-24.95,32.03-46.19,58.67-53.27,153.58-38.77,311.03-67.6,468.47-85.47,2.7-.34,5.39-.34,7.93-.34,24.95,0,49.4,11.8,65.75,29.5,9.44,10.28,16.01,22.42,18.71,35.57,1.86,9.61,3.71,19.39,5.39,29.16,2.19,13.32.17,26.97-4.89,39.78-9.94,24.95-32.03,46.19-58.67,53.27-153.57,38.77-311.19,67.6-468.47,85.47ZM791.96,883.45c0,22.76-18.54,41.3-41.3,41.3s-41.3-18.54-41.3-41.3v-83.28c.84-19.56,15.17-35.57,33.88-38.94,2.36-.51,4.89-.68,7.42-.68,1.18,0,2.53,0,3.71.17.34,0,.84,0,1.18.17,6.24.68,11.97,2.87,17.03,6.07,2.7,1.69,5.06,3.54,7.25,5.73,4.72,4.72,8.26,10.62,10.28,17.19h0c1.18,3.71,1.69,7.76,1.69,11.97v81.59h.17ZM627.6,874.85c-20.56,11.13-42.82,20.9-66.08,29.16l-28.83-80.92c19.05-6.74,37.26-14.83,53.95-23.77l40.96,75.52ZM518.19,827.99l25.79,81.93c-19.73,6.24-40.8,11.63-62.2,15.84h0c-10.11,18.04-28.15,31.19-50.06,34.39l-71.48,10.11c-.84.17-1.69.17-2.7.17-9.1,0-17.03-6.74-18.38-16.01-1.52-10.11,5.56-19.56,15.68-20.9l71.48-10.11c17.03-2.36,29-18.21,26.46-35.23-1.18-8.26-5.56-15.51-12.14-20.56-6.74-5.06-14.83-7.08-23.09-5.9l-71.48,10.11c-10.11,1.52-19.56-5.56-20.9-15.68-1.52-10.11,5.56-19.56,15.68-20.9l71.48-10.11c18.04-2.53,36.08,2.03,50.57,12.98,1.35,1.01,2.53,2.03,3.88,3.2h0c18.04-3.89,35.24-8.27,51.42-13.33ZM997.28,726.67l26.63,81.76c-24.61,8.09-49.73,12.98-74.51,14.83l-6.07-85.8c17.7-1.18,35.91-4.89,53.95-10.79ZM929.35,737.96l.34,85.97h-1.18c-25.12,0-50.23-3.37-74.85-9.78l21.91-83.11c17.53,4.55,35.4,6.91,53.1,6.91h.68ZM1221.32,723.63l-59.51,40.29c-11.8,7.93-25.29,11.8-38.6,11.8-7.25,0-14.49-1.18-21.41-3.37h0c-19.73,11.8-39.78,21.91-59.85,29.67l-31.19-80.07c14.83-5.73,29.67-13.15,44.67-21.91.17-1.18.34-2.36.51-3.37,3.2-17.87,13.49-33.21,28.66-43.5l59.51-40.29c8.43-5.73,20.06-3.54,25.79,5.06,5.73,8.43,3.54,20.06-5.06,25.79l-59.51,40.29c-6.91,4.55-11.46,11.46-12.81,19.56-1.35,7.76.34,15.68,4.89,22.25,9.78,13.99,29.33,17.36,43.66,7.76l59.51-40.29c8.43-5.73,20.06-3.54,25.79,5.06,5.73,8.59,3.54,19.55-5.06,25.28ZM775.1,1135.47v113.96c0,13.49-10.96,24.61-24.61,24.61h0c-13.49,0-24.61-10.96-24.61-24.61v-113.96c0-13.49,10.96-24.61,24.61-24.61h0c13.66,0,24.61,10.96,24.61,24.61ZM651.53,577.14c-8.76,10.96-24.61,12.64-35.57,3.88l-43.5-35.06-28.32,48.21c-4.72,8.09-13.15,12.48-21.91,12.48-4.38,0-8.76-1.18-12.81-3.54-11.97-7.08-16.01-22.59-8.93-34.56l43.16-73.5c3.71-6.41,10.11-10.79,17.19-12.14,7.25-1.35,14.66.51,20.39,5.23l66.42,53.61c10.96,8.59,12.64,24.61,3.88,35.4ZM967.61,519.49c-8.76,10.96-24.61,12.64-35.57,3.88l-43.5-35.06-28.32,48.21c-4.72,8.09-13.15,12.48-21.91,12.48-4.38,0-8.76-1.18-12.81-3.54-11.96-7.09-16.01-22.59-8.93-34.56l43.16-73.5c3.71-6.41,9.94-10.79,17.19-12.14,7.25-1.35,14.66.51,20.39,5.23l66.42,53.61c10.96,8.59,12.64,24.61,3.88,35.4Z"/>
  </g>
</svg>


